<svg width="85" height="83" viewBox="0 0 85 83" fill="none" xmlns="http://www.w3.org/2000/svg">
<g clip-path="url(#clip0)">
<path d="M84.2664 0.637756V36.1986C84.2664 42.5205 82.266 48.6448 78.6557 53.6826C77.5335 55.2631 76.265 56.6954 74.8501 58.0289L74.7526 58.0783H58.0668V25.1352H42.6008H26.9884H25.6223H10.205L10.4002 24.9376L23.4756 12.6395L28.3057 8.14504C33.77 3.00848 40.5028 0.637756 47.9187 0.637756H84.2664Z" fill="url(#paint0_linear)"/>
<path d="M74.7526 58.1277L74.7038 58.1771L74.655 58.2265L73.7768 59.0661L70.4592 62.2271L58.4083 73.5374L57.2374 74.624C51.7731 79.7112 44.6011 82.477 37.234 82.477H0.73999V66.5734L0.788779 58.0783L0.886357 46.768C0.935145 38.5199 4.30157 30.7163 10.2538 25.0858H25.6711H25.7198V58.0783H74.7526V58.1277Z" fill="url(#paint1_linear)"/>
</g>
<defs>
<linearGradient id="paint0_linear" x1="48.9878" y1="-2.87037" x2="44.1995" y2="87.3832" gradientUnits="userSpaceOnUse">
<stop stop-color="#48EF8A"/>
<stop offset="0.5458" stop-color="#43B4A6"/>
<stop offset="0.6918" stop-color="#2D796F"/>
<stop offset="0.9662"/>
</linearGradient>
<linearGradient id="paint1_linear" x1="39.9495" y1="86.9542" x2="27.379" y2="-5.52797" gradientUnits="userSpaceOnUse">
<stop stop-color="#FF5F96"/>
<stop offset="0.6103" stop-color="#FF33AF"/>
<stop offset="1"/>
</linearGradient>
<clipPath id="clip0">
<rect width="83.5264" height="81.8886" fill="white" transform="translate(0.739929 0.637756)"/>
</clipPath>
</defs>
</svg>
